<svg xmlns="http://www.w3.org/2000/svg" width="1600" height="980" viewBox="0 0 1600 980" role="img" aria-labelledby="title desc">
  <title id="title">Map Overview Sequence Frame 3: Last Frame After Zoom</title>
  <desc id="desc">Final frame of zoom-out animation showing map overview cards and labels for ZO-FR-4 through ZO-FR-7 behavior.</desc>
  <defs>
    <style>
      .bg { fill: #040a16; }
      .menu { fill: #0d1628; }
      .canvas { fill: #081224; stroke: #1f2937; stroke-width: 2; }
      .title { font: 700 28px -apple-system, BlinkMacSystemFont, Segoe UI, Helvetica, Arial, sans-serif; fill: #f3f4f6; }
      .subtitle { font: 500 17px -apple-system, BlinkMacSystemFont, Segoe UI, Helvetica, Arial, sans-serif; fill: #d1d5db; }
      .menu-text { font: 600 14px -apple-system, BlinkMacSystemFont, Segoe UI, Helvetica, Arial, sans-serif; fill: #d1d5db; }
      .ws { fill: #2f3749; stroke: #5b637a; stroke-width: 1.8; }
      .ws-active { fill: #4875c7; stroke: #c6ddff; stroke-width: 2.8; }
      .ws-title { font: 700 13px -apple-system, BlinkMacSystemFont, Segoe UI, Helvetica, Arial, sans-serif; fill: #f3f4f6; }
      .thumb-bg { fill: #1e2d44; stroke: #344f76; stroke-width: 1; }
      .thumb-window-a { fill: #2b4367; }
      .thumb-window-b { fill: #38557f; }
      .thumb-window-c { fill: #263c5c; }
      .thumb-sticky { fill: #f5e8b4; stroke: #cabd8c; stroke-width: 1; }
      .empty-label { font: 600 13px -apple-system, BlinkMacSystemFont, Segoe UI, Helvetica, Arial, sans-serif; fill: #cbd5e1; }
      .handle-dot { fill: #dbe3f2; opacity: 0.9; }
      .legend-panel { fill: #0f172a; stroke: #475569; stroke-width: 1.5; }
      .legend-title { font: 700 16px -apple-system, BlinkMacSystemFont, Segoe UI, Helvetica, Arial, sans-serif; fill: #f8fafc; }
      .legend-body { font: 500 14px -apple-system, BlinkMacSystemFont, Segoe UI, Helvetica, Arial, sans-serif; fill: #d1d5db; }
      .tag { fill: #1d4ed8; }
      .tag-text { font: 700 12px -apple-system, BlinkMacSystemFont, Segoe UI, Helvetica, Arial, sans-serif; fill: #eff6ff; }
      .thumb-window-bar { fill: #1a2a42; }
    </style>
  </defs>

  <rect class="bg" x="0" y="0" width="1600" height="980" />

  <text class="title" x="70" y="64">Frame 3 - Map Overview Last Frame (After Zoom)</text>
  <text class="subtitle" x="70" y="92">Overview canvas is fully revealed with user-arranged, non-grid workspace cards</text>

  <rect class="menu" x="70" y="120" width="1160" height="40" rx="9" />
  <text class="menu-text" x="92" y="145">Zoom-out overview</text>
  <text class="menu-text" x="1080" y="145">Mon Mar 2 6:53 AM</text>

  <rect class="canvas" x="70" y="170" width="1160" height="730" rx="14" />
  <text class="empty-label" x="290" y="230">User-arranged map layout (drag cards to re-position)</text>

  <rect class="ws" x="220" y="280" width="280" height="190" rx="12" />
  <text class="ws-title" x="238" y="302">Workspace 1</text>
  <rect class="thumb-bg" x="238" y="312" width="244" height="140" rx="7" />
  <rect class="thumb-window-a" x="255" y="330" width="110" height="88" rx="5" />
  <rect class="thumb-window-b" x="374" y="330" width="92" height="52" rx="5" />
  <rect class="thumb-window-c" x="374" y="388" width="92" height="30" rx="5" />
  <rect class="thumb-sticky" x="322" y="398" width="52" height="16" rx="3" />
  <g>
    <circle class="handle-dot" cx="464" cy="296" r="2.2" />
    <circle class="handle-dot" cx="471" cy="296" r="2.2" />
    <circle class="handle-dot" cx="478" cy="296" r="2.2" />
  </g>

  <rect class="ws-active" x="600" y="470" width="280" height="190" rx="12" />
  <text class="ws-title" x="620" y="493">Workspace 2 (active)</text>
  <rect class="thumb-bg" x="618" y="502" width="244" height="140" rx="7" />
  <rect class="thumb-window-a" x="628" y="514" width="105" height="65" rx="5" />
  <rect class="thumb-window-bar" x="628" y="514" width="105" height="8" rx="5" />
  <rect class="thumb-window-b" x="742" y="521" width="105" height="56" rx="5" />
  <rect class="thumb-window-bar" x="742" y="521" width="105" height="8" rx="5" />
  <rect class="thumb-window-c" x="650" y="588" width="114" height="46" rx="5" />
  <rect class="thumb-window-bar" x="650" y="588" width="114" height="8" rx="5" />
  <rect class="thumb-sticky" x="788" y="586" width="53" height="33" rx="3" />
  <g>
    <circle class="handle-dot" cx="844" cy="486" r="2.2" />
    <circle class="handle-dot" cx="851" cy="486" r="2.2" />
    <circle class="handle-dot" cx="858" cy="486" r="2.2" />
  </g>

  <rect class="ws" x="940" y="250" width="280" height="190" rx="12" />
  <text class="ws-title" x="958" y="272">Workspace 3</text>
  <rect class="thumb-bg" x="958" y="282" width="244" height="140" rx="7" />
  <text class="empty-label" x="1034" y="358">No stickies</text>
  <g>
    <circle class="handle-dot" cx="1184" cy="266" r="2.2" />
    <circle class="handle-dot" cx="1191" cy="266" r="2.2" />
    <circle class="handle-dot" cx="1198" cy="266" r="2.2" />
  </g>

  <rect class="legend-panel" x="1260" y="250" width="300" height="330" rx="10" />
  <text class="legend-title" x="1276" y="280">Requirements</text>

  <rect class="tag" x="1276" y="326" width="72" height="24" rx="6" />
  <text class="tag-text" x="1290" y="342">ZO-FR-4</text>
  <text class="legend-body" x="1358" y="343">Empty workspace visible</text>

  <rect class="tag" x="1276" y="372" width="72" height="24" rx="6" />
  <text class="tag-text" x="1290" y="388">ZO-FR-5</text>
  <text class="legend-body" x="1358" y="389">Card positions configurable</text>

  <rect class="tag" x="1276" y="418" width="72" height="24" rx="6" />
  <text class="tag-text" x="1290" y="434">ZO-FR-6</text>
  <text class="legend-body" x="1358" y="435">Layout persists in session</text>

  <rect class="tag" x="1276" y="464" width="72" height="24" rx="6" />
  <text class="tag-text" x="1290" y="480">ZO-FR-7</text>
  <text class="legend-body" x="1358" y="481">Active workspace highlighted</text>
</svg>
